<svg width="169" height="53" viewBox="0 0 169 53" fill="none" xmlns="http://www.w3.org/2000/svg">
<path d="M155.989 2.17125C151.97 3.67856 150.629 5.54835 150.629 7.35712C150.546 11.3766 156.489 9.21614 156.355 12.9665C156.355 14.6568 155.076 16.523 152.213 16.523C149.169 16.523 145.94 14.1723 145.94 9.58938C145.94 4.16306 150.444 1.20585 155.076 0L155.989 2.17125Z" fill="white"/>
<path d="M168.632 2.17125C164.613 3.67856 163.272 5.54835 163.272 7.35712C163.189 11.3766 169.132 9.21614 168.998 12.9665C168.998 14.6568 167.719 16.523 164.856 16.523C161.812 16.523 158.583 14.1723 158.583 9.58938C158.583 4.16306 163.088 1.20585 167.719 0L168.632 2.17125Z" fill="white"/>
<path d="M151.216 20.5605C149.125 20.5605 147.209 20.0652 145.839 19.2685V52.0131H156.463V19.3259C155.105 20.0903 153.256 20.5605 151.216 20.5605Z" fill="white"/>
<path d="M0 37.4388H10.9544C11.3494 41.2932 13.857 45.0866 20.5898 45.0866C26.7283 45.0866 29.3011 42.2765 29.3011 39.4665C29.3011 36.6564 27.7828 34.6969 22.3074 33.7818L16.2377 32.802C5.87762 31.1045 1.72125 26.5933 1.72125 18.8809C1.72125 11.1685 8.71496 4.95978 19.9991 4.95978C32.6023 4.95978 38.806 11.8216 39.6648 19.7314H28.7104C28.0509 16.0062 25.6086 12.8696 19.9339 12.8696C14.589 12.8696 12.4763 15.615 12.4763 18.0339C12.4763 20.9732 14.1251 22.3477 19.6041 23.2629L25.1484 24.1134C35.3092 25.7463 40.9186 30.3867 40.9186 38.4903C40.9186 47.2471 33.4611 53 20.7239 53C7.9866 53 0.594284 46.5221 0 37.4388Z" fill="white"/>
<path d="M66.6432 19.2685H76.8112V22.8645C78.5941 20.3164 81.4314 18.2887 85.9828 18.2887C90.7987 18.2887 93.9005 20.7722 95.6182 23.7151C97.5315 20.905 101.228 18.2887 106.308 18.2887C113.631 18.2887 118.581 22.5379 118.581 30.7061V52.0131H108.087L108.152 32.2098C108.152 28.4846 106.634 26.3923 103.007 26.3923C99.3795 26.3923 97.5967 28.9404 97.5967 33.0604V52.0131H87.6968V32.2098C87.6968 28.4846 86.1785 26.3923 82.4823 26.3923C78.7861 26.3923 77.2026 29.0732 77.2026 33.0604V52.0131H66.6432V19.2685Z" fill="white"/>
<path d="M126.702 5.93595H137.327V52.0131H126.702V5.93595Z" fill="white"/>
<path d="M52.7174 20.5605C50.699 20.5605 48.869 20.0975 47.5137 19.3474V52.0131H58.1384V19.2685C56.7686 20.0652 54.8082 20.5605 52.7174 20.5605Z" fill="white"/>
<path d="M52.7282 4.95619C56.4896 4.95619 58.932 7.56887 58.932 10.6409C58.932 13.713 56.4896 16.523 52.7282 16.523C48.9668 16.523 46.7238 13.8422 46.7238 10.6409C46.7238 7.43967 48.9668 4.95619 52.7282 4.95619Z" fill="white"/>
</svg>
